<svg xmlns="http://www.w3.org/2000/svg" width="11" height="17" viewBox="0 0 11 17"><defs><clipPath id="4xoga"><path fill="#fff" d="M.28 7.805L8.81.311c.416-.365 1.162-.427 1.666-.139.505.289.577.82.16 1.184L2.669 8.357l8.062 7.283c.403.363.333.892-.156 1.18-.489.288-1.212.227-1.615-.138L.685 9.21A.885.885 0 0 1 .54 9.04a1.235 1.235 0 0 1-.099-.05c-.504-.29-.576-.82-.16-1.185z"/></clipPath></defs><g><g><path fill="none" stroke="#fff" stroke-miterlimit="20" stroke-width="4" d="M.28 7.805L8.81.311c.416-.365 1.162-.427 1.666-.139.505.289.577.82.16 1.184L2.669 8.357l8.062 7.283c.403.363.333.892-.156 1.18-.489.288-1.212.227-1.615-.138L.685 9.21A.885.885 0 0 1 .54 9.04a1.235 1.235 0 0 1-.099-.05c-.504-.29-.576-.82-.16-1.185z" clip-path="url(&quot;#4xoga&quot;)"/></g></g></svg>