<svg xmlns="http://www.w3.org/2000/svg" width="11" height="17"><defs><clipPath id="a"><path fill="#fff" d="M.28 7.805L8.81.311c.416-.365 1.162-.427 1.666-.139.505.289.577.82.16 1.184L2.669 8.357l8.062 7.283c.403.363.333.892-.156 1.18-.489.288-1.212.227-1.615-.138L.685 9.21a.885.885 0 01-.145-.17 1.235 1.235 0 01-.099-.05c-.504-.29-.576-.82-.16-1.185z"/></clipPath></defs><path fill="none" stroke="#fff" stroke-miterlimit="20" stroke-width="4" d="M.28 7.805L8.81.311c.416-.365 1.162-.427 1.666-.139.505.289.577.82.16 1.184L2.669 8.357l8.062 7.283c.403.363.333.892-.156 1.18-.489.288-1.212.227-1.615-.138L.685 9.21a.885.885 0 01-.145-.17 1.235 1.235 0 01-.099-.05c-.504-.29-.576-.82-.16-1.185z" clip-path="url(&quot;#a&quot;)"/></svg>