<svg xmlns="http://www.w3.org/2000/svg" width="51" height="25"><defs><clipPath id="a"><path fill="#fff" d="M13.219 12h36.218a1 1 0 011 1v.375a1 1 0 01-1 1H13.22a1 1 0 01-1-1V13a1 1 0 011-1z"/></clipPath><clipPath id="b"><path fill="#fff" d="M.188 11.93L9.771 1.225a1.433 1.433 0 011.872-.197c.566.412.647 1.17.18 1.691l-8.952 10 9.055 10.4a1.14 1.14 0 01-.175 1.687 1.361 1.361 0 01-1.814-.197L.644 13.935a1.23 1.23 0 01-.164-.241 1.31 1.31 0 01-.111-.073 1.123 1.123 0 01-.18-1.69z"/></clipPath></defs><path fill="none" stroke="#fff" stroke-miterlimit="20" stroke-width="4" d="M13.219 12h36.218a1 1 0 011 1v.375a1 1 0 01-1 1H13.22a1 1 0 01-1-1V13a1 1 0 011-1z" clip-path="url(&quot;#a&quot;)" opacity=".5"/><path fill="none" stroke="#fff" stroke-miterlimit="20" stroke-width="4" d="M.188 11.93L9.771 1.225a1.433 1.433 0 011.872-.197c.566.412.647 1.17.18 1.691l-8.952 10 9.055 10.4a1.14 1.14 0 01-.175 1.687 1.361 1.361 0 01-1.814-.197L.644 13.935a1.23 1.23 0 01-.164-.241 1.31 1.31 0 01-.111-.073 1.123 1.123 0 01-.18-1.69z" clip-path="url(&quot;#b&quot;)" opacity=".5"/></svg>