<svg xmlns="http://www.w3.org/2000/svg" width="32" height="32"><defs><clipPath id="a"><path fill="#fff" d="M16 0c8.837 0 16 7.163 16 16s-7.163 16-16 16S0 24.837 0 16 7.163 0 16 0z"/></clipPath></defs><path fill="#ff3f3f" d="M16 0c8.837 0 16 7.163 16 16s-7.163 16-16 16S0 24.837 0 16 7.163 0 16 0z"/><path fill="none" stroke="#ff3f3f" stroke-miterlimit="20" stroke-width="4" d="M16 0c8.837 0 16 7.163 16 16s-7.163 16-16 16S0 24.837 0 16 7.163 0 16 0z" clip-path="url(&quot;#a&quot;)"/><path fill="#fff" d="M20.26 10.327l1.48 1.346-4.39 4.827 4.389 4.827-1.48 1.346L16 17.987l-4.26 4.686-1.48-1.346 4.39-4.827-4.389-4.827 1.48-1.346L16 15.014z"/></svg>