<svg xmlns="http://www.w3.org/2000/svg" width="17" height="11"><defs><clipPath id="a"><path fill="#fff" d="M8.01 10.56a1.237 1.237 0 01-.05-.1.885.885 0 01-.17-.146L.318 2.041C-.047 1.638-.109.915.18.426.467-.064.996-.133 1.36.27l7.282 8.062 7-7.97c.366-.416.896-.344 1.185.16.289.505.227 1.25-.138 1.666L9.194 10.72c-.365.416-.895.344-1.184-.16z"/></clipPath></defs><path fill="none" stroke="#fff" stroke-miterlimit="20" stroke-width="4" d="M8.01 10.56a1.237 1.237 0 01-.05-.1.885.885 0 01-.17-.146L.318 2.041C-.047 1.638-.109.915.18.426.467-.064.996-.133 1.36.27l7.282 8.062 7-7.97c.366-.416.896-.344 1.185.16.289.505.227 1.25-.138 1.666L9.194 10.72c-.365.416-.895.344-1.184-.16z" clip-path="url(&quot;#a&quot;)"/></svg>